<svg width="501" height="358" viewBox="0 0 501 358" fill="none" xmlns="http://www.w3.org/2000/svg">
<path d="M0.144043 152.101V206.024H9.53415V152.101H0.144043ZM31.9403 163.35C31.9403 161.398 33.0559 160.282 35.1943 160.282C36.8677 160.282 37.7975 161.026 38.5412 162.607L54.2534 197.006C56.4847 203.142 59.9247 206.954 67.4553 206.954C75.7298 206.954 79.8205 202.212 79.8205 195.147V152.101H70.3374V194.775C70.3374 196.634 69.1288 197.843 67.1764 197.843C65.41 197.843 64.3873 196.913 63.7365 195.611L48.0243 161.212C45.793 155.076 42.446 151.264 34.9153 151.264C26.5479 151.264 22.5501 156.006 22.5501 162.979V206.117H31.9403V163.443V163.35ZM112.175 152.101C97.857 152.101 92.2787 159.91 92.2787 170.695V206.024H101.669V184.734H134.116V175.809H101.669V170.695C101.669 165.675 104.179 161.584 112.732 161.584H134.488V152.194H112.175V152.101ZM145.737 152.101V206.024H155.127V152.101H145.737ZM177.533 163.35C177.533 161.398 178.649 160.282 180.787 160.282C182.461 160.282 183.391 161.026 184.134 162.607L199.847 197.006C202.078 203.142 205.518 206.954 213.049 206.954C221.323 206.954 225.414 202.212 225.414 195.147V152.101H215.931V194.775C215.931 196.634 214.722 197.843 212.77 197.843C211.003 197.843 209.98 196.913 209.33 195.611L193.618 161.212C191.386 155.076 188.039 151.264 180.509 151.264C172.141 151.264 168.143 156.006 168.143 162.979V206.117H177.533V163.443V163.35ZM238.337 152.101V206.024H247.727V152.101H238.337ZM283.149 152.101C267.53 152.101 258.79 161.026 258.79 179.156C258.79 197.192 267.437 206.024 283.149 206.024H290.494C306.206 206.024 314.852 197.285 314.852 179.156C314.852 161.026 306.113 152.101 290.494 152.101H283.149ZM290.494 161.491C300.907 161.491 305.369 166.79 305.369 179.063C305.369 191.428 300.907 196.541 290.494 196.541H283.149C272.736 196.541 268.181 191.428 268.181 179.156C268.181 166.79 272.736 161.491 283.149 161.491H290.494ZM335.306 163.35C335.306 161.398 336.422 160.282 338.56 160.282C340.233 160.282 341.163 161.026 341.907 162.607L357.619 197.006C359.85 203.142 363.29 206.954 370.821 206.954C379.095 206.954 383.186 202.212 383.186 195.147V152.101H373.703V194.775C373.703 196.634 372.495 197.843 370.542 197.843C368.776 197.843 367.753 196.913 367.102 195.611L351.39 161.212C349.159 155.076 345.812 151.264 338.281 151.264C329.914 151.264 325.916 156.006 325.916 162.979V206.117H335.306V163.443V163.35Z" fill="white"/>
<path fill-rule="evenodd" clip-rule="evenodd" d="M321.267 346.876C239.266 346.876 171.025 288.211 156.243 210.58H145.179C160.148 294.254 233.316 357.754 321.267 357.754C420.096 357.754 500.144 277.612 500.144 178.877C500.144 80.0483 420.003 0 321.267 0C233.409 0 160.427 63.3135 145.272 146.709H156.336C171.397 69.3566 239.452 10.8776 321.267 10.8776C414.053 10.8776 489.266 86.0915 489.266 178.877C489.266 271.662 414.053 346.876 321.267 346.876Z" fill="#F26113"/>
</svg>
